# xmcd CD database file
#
# Track frame offsets:
#	183
#	11820
#	24325
#	36588
#	48540
#	58373
#	69883
#	82805
#	93420
#	107013
#	119058
#	130223
#	142508
#	154673
#	169593
#
# Disc length: 2445 seconds
#
# Revision: 0
# Processed by: cddbd v1.5PL3 Copyright (c) Steve Scherf et al.
# Submitted via: CDex 1.51
#
DISCID=c3098b0f
DTITLE=contreras - este es
DYEAR=1900
DGENRE=Salsa
TTITLE0=mi corazonada
TTITLE1=sin egoismo
TTITLE2=en un beso la vida
TTITLE3=campanitas de cristal
TTITLE4=por seguir tu  huellas
TTITLE5=donde tu iras
TTITLE6=vuelvo a la  lucha
TTITLE7=llegaste tarde
TTITLE8=arrancama la vida
TTITLE9=por borracha
TTITLE10=mi copa esta vacia
TTITLE11=dos amigos
TTITLE12=no se porque mi oolvidas
TTITLE13=dos lagrimas
TTITLE14=la ultima carta
EXTD=
EXTT0=
EXTT1=
EXTT2=
EXTT3=
EXTT4=
EXTT5=
EXTT6=
EXTT7=
EXTT8=
EXTT9=
EXTT10=
EXTT11=
EXTT12=
EXTT13=
EXTT14=
PLAYORDER=
